<svg width="17" height="17" viewBox="0 0 17 17" fill="none" xmlns="http://www.w3.org/2000/svg">
<path d="M1 16H16M1 4.33333V5.16667C1 5.82971 1.26339 6.46559 1.73223 6.93443C2.20107 7.40327 2.83696 7.66666 3.5 7.66666C4.16304 7.66666 4.79893 7.40327 5.26777 6.93443C5.73661 6.46559 6 5.82971 6 5.16667M1 4.33333H16M1 4.33333L2.66667 1H14.3333L16 4.33333M6 5.16667V4.33333M6 5.16667C6 5.82971 6.26339 6.46559 6.73223 6.93443C7.20107 7.40327 7.83696 7.66666 8.5 7.66666C9.16304 7.66666 9.79893 7.40327 10.2678 6.93443C10.7366 6.46559 11 5.82971 11 5.16667M11 5.16667V4.33333M11 5.16667C11 5.82971 11.2634 6.46559 11.7322 6.93443C12.2011 7.40327 12.837 7.66666 13.5 7.66666C14.163 7.66666 14.7989 7.40327 15.2678 6.93443C15.7366 6.46559 16 5.82971 16 5.16667V4.33333M2.66667 16V7.54167M14.3333 16V7.54167M6 16V12.6667C6 12.2246 6.17559 11.8007 6.48816 11.4882C6.80072 11.1756 7.22464 11 7.66667 11H9.33333C9.77536 11 10.1993 11.1756 10.5118 11.4882C10.8244 11.8007 11 12.2246 11 12.6667V16" stroke="#FF0000" stroke-linecap="round" stroke-linejoin="round"/>
</svg>
