<svg width="23" height="22" viewBox="0 0 23 22" fill="none" xmlns="http://www.w3.org/2000/svg">
<path d="M20.4687 13.8125L18.1771 16L17.0312 14.9062M22.5 14.75C22.5 16.8211 20.8211 18.5 18.75 18.5C16.6789 18.5 15 16.8211 15 14.75C15 12.6789 16.6789 11 18.75 11C20.8211 11 22.5 12.6789 22.5 14.75Z" stroke="#FF0000" stroke-linecap="round" stroke-linejoin="round"/>
<path d="M20 9V6.38283C20 6.24994 19.9626 6.11945 19.8917 6.00474C19.8208 5.89003 19.7189 5.79524 19.5965 5.73009L10.8881 1.09618C10.7696 1.03312 10.636 1 10.5 1C10.364 1 10.2304 1.03312 10.1119 1.09618L1.40354 5.73009C1.28111 5.79524 1.17921 5.89003 1.10829 6.00474C1.03738 6.11945 1 6.24994 1 6.38283V15.6172C1 15.7501 1.03738 15.8806 1.10829 15.9953C1.17921 16.11 1.28111 16.2048 1.40354 16.2699L10.1119 20.9038C10.2304 20.9669 10.364 21 10.5 21M14.5 19L10.8881 20.9038C10.7696 20.9669 10.636 21 10.5 21M10.5 21L10.4061 11M5.64886 13.2946V8.42664L15.25 3.41724M1.10915 6.00352L10.4061 11M10.4061 11L19.8904 6.00258" stroke="#FF0000" stroke-linecap="round" stroke-linejoin="round"/>
</svg>
