<?xml version="1.0" encoding="UTF-8"?>
<!DOCTYPE svg PUBLIC "-//W3C//DTD SVG 1.1//EN" "http://www.w3.org/Graphics/SVG/1.1/DTD/svg11.dtd">
<!-- Creator: CorelDRAW -->
<svg xmlns="http://www.w3.org/2000/svg" xml:space="preserve" width="36px"  height="36px" version="1.1" style="shape-rendering:geometricPrecision; text-rendering:geometricPrecision; image-rendering:optimizeQuality; fill-rule:evenodd; clip-rule:evenodd"
viewBox="0 0 13.29 13.29"
 xmlns:xlink="http://www.w3.org/1999/xlink"
 xmlns:xodm="http://www.corel.com/coreldraw/odm/2003">
 <defs>
  <style type="text/css">
   <![CDATA[
    .fil0 {fill:none}
    .fil1 {fill:#00000}
   ]]>
  </style>
 </defs>
 <g id="Camada_x0020_1">
  <metadata id="CorelCorpID_0Corel-Layer"/>
  <rect class="fil0" width="13.29" height="13.29"/>
  <g id="_2040432901856">
   <path class="fil1" d="M0.77 7.53l2.14 -4.29 0 0c0.09,-0.18 0.26,-0.3 0.47,-0.3l0 0 0 0 0.32 0 0.83 1.66 -1.84 3.69 1.82 0 0 0.06 0.95 0 -1.28 2 -1.9 0 -1.18 -2.08c-0.16,-0.04 -0.29,-0.15 -0.36,-0.31 -0.06,-0.14 -0.04,-0.29 0.03,-0.43z"/>
   <path class="fil1" d="M0.91 8.29l-0.13 -0.25c0.09,0.15 0.25,0.25 0.44,0.25l0 0 0 0 1.47 0 3.04 0 1.03 2.06 -4.48 0 0 0c-0.01,0 -0.02,0 -0.02,0 -0.2,0 -0.37,-0.11 -0.46,-0.27l0 0 -0.89 -1.79zm-0.16 -0.31l0 0 0 0 0 0z"/>
   <path class="fil1" d="M5.65 2.94c0.2,0 0.37,0.12 0.46,0.28l0 0 3.56 7.13 -2.27 0 -3.55 -7.12 -0.01 0c-0.08,-0.17 -0.26,-0.29 -0.46,-0.29l2.27 0 0 0 0 0z"/>
   <path class="fil1" d="M8.57 2.94c0.2,0 0.37,0.12 0.45,0.28l0 0 3.57 7.13 -2.27 0 -3.56 -7.12 0 0c-0.09,-0.17 -0.26,-0.29 -0.47,-0.29l2.27 0 0.01 0 0 0z"/>
  </g>
 </g>
</svg>
