<svg width="18" height="19" viewBox="0 0 18 19" fill="none" xmlns="http://www.w3.org/2000/svg">
<path d="M11.4995 16.8855V12.4827C11.4995 12.288 11.4204 12.1014 11.2798 11.9638C11.1391 11.8262 10.9484 11.7489 10.7495 11.7489H7.74945C7.55054 11.7489 7.35977 11.8262 7.21912 11.9638C7.07847 12.1014 6.99945 12.288 6.99945 12.4827V16.8855C6.99945 17.0801 6.92045 17.2667 6.77981 17.4043C6.63918 17.5419 6.44844 17.6192 6.24954 17.6193L1.75009 17.6198C1.65159 17.6198 1.55406 17.6009 1.46305 17.564C1.37205 17.5271 1.28936 17.4731 1.2197 17.4049C1.15005 17.3368 1.0948 17.2559 1.0571 17.1669C1.0194 17.0778 1 16.9824 1 16.886V8.40527C1 8.30304 1.02183 8.20193 1.0641 8.10844C1.10637 8.01495 1.16814 7.93113 1.24545 7.86235L8.74493 1.19087C8.88299 1.06806 9.06287 1.00001 9.24946 1C9.43605 0.999994 9.61594 1.06804 9.754 1.19084L17.2545 7.86235C17.3318 7.93112 17.3936 8.01495 17.4359 8.10845C17.4782 8.20195 17.5 8.30306 17.5 8.4053V16.8861C17.5 16.9824 17.4806 17.0778 17.4429 17.1669C17.4052 17.2559 17.35 17.3368 17.2803 17.405C17.2106 17.4731 17.128 17.5271 17.0369 17.564C16.9459 17.6009 16.8484 17.6199 16.7499 17.6198L12.2494 17.6193C12.0505 17.6192 11.8597 17.5419 11.7191 17.4043C11.5785 17.2667 11.4994 17.0801 11.4995 16.8855V16.8855Z" stroke="#FF0000" stroke-linecap="round" stroke-linejoin="round"/>
</svg>
