<svg width="21" height="20" viewBox="0 0 21 20" fill="none" xmlns="http://www.w3.org/2000/svg">
  <path d="M1.26245 18.6241C2.19606 17.0281 3.5385 15.7028 5.1549 14.7814C6.77129 13.86 8.60473 13.375 10.471 13.375C12.3373 13.375 14.1707 13.8601 15.7871 14.7815C17.4035 15.7029 18.7459 17.0283 19.6795 18.6243M17.3053 5.125V6.25M17.3053 5.125C18.1441 5.125 18.824 4.45343 18.824 3.625C18.824 2.79657 18.1441 2.125 17.3053 2.125M17.3053 5.125C16.4665 5.125 15.7865 4.45343 15.7865 3.625C15.7865 2.79657 16.4665 2.125 17.3053 2.125M17.3053 2.125V1M18.6206 4.375L19.607 4.9375M15.99 4.375L15.0036 4.9375M18.6206 2.875L19.607 2.3125M15.99 2.875L15.0036 2.3125M16.0359 9.78526C15.5814 10.8068 14.8474 11.6828 13.9164 12.3149C12.9854 12.947 11.8944 13.31 10.7659 13.3632C9.63745 13.4163 8.51635 13.1576 7.52866 12.6159C6.54096 12.0743 5.72584 11.2712 5.17494 10.2971C4.62404 9.32297 4.3592 8.21636 4.41021 7.10171C4.46121 5.98706 4.82604 4.90856 5.46367 3.98748C6.10129 3.0664 6.98644 2.33926 8.01957 1.88781C9.05271 1.43637 10.1929 1.27852 11.3119 1.43202" stroke="#FF0000" stroke-linecap="round" stroke-linejoin="round"/>
</svg>
